<?xml version="1.0" encoding="UTF-8"?>
<svg version="1.1" xmlns="http://www.w3.org/2000/svg" width="500" height="500">
<path d="M0 0 C165 0 330 0 500 0 C500 165 500 330 500 500 C335 500 170 500 0 500 C0 335 0 170 0 0 Z " fill="#FFFEFE" transform="translate(0,0)"/>
<path d="M0 0 C0.75925781 0.13390137 1.51851562 0.26780273 2.30078125 0.40576172 C42.54719981 7.88398138 82.14118071 32.61511615 107 65 C108.16208984 66.40378906 108.16208984 66.40378906 109.34765625 67.8359375 C124.24357485 86.20206217 134.82945297 108.22342199 141 131 C141.26296875 131.89847656 141.5259375 132.79695312 141.796875 133.72265625 C148.98567231 159.80038528 148.90529517 187.53595926 144 214 C143.79914795 215.1132666 143.79914795 215.1132666 143.59423828 216.24902344 C137.85109837 246.89302573 122.38238311 275.66267502 102 299 C101.54512207 299.52190918 101.09024414 300.04381836 100.62158203 300.58154297 C93.95486474 308.17487382 87.02871586 314.8232117 79 321 C78.00484375 321.81082031 77.0096875 322.62164062 75.984375 323.45703125 C67.85612994 330.02643479 59.23038841 335.13395477 50 340 C48.85789062 340.61746094 47.71578125 341.23492187 46.5390625 341.87109375 C29.80695093 350.62717545 12.50619426 355.548363 -6 359 C-7.24523437 359.2475 -8.49046875 359.495 -9.7734375 359.75 C-56.1282409 367.52982714 -104.09231427 353.34652743 -141.87646484 326.57397461 C-147.13254812 322.75985233 -151.95362121 318.6918848 -156.6640625 314.21484375 C-158.69397873 312.29015729 -160.77455453 310.52008395 -162.9375 308.75 C-176.95577583 296.51273462 -187.22688708 280.21314503 -196 264 C-196.89525391 262.35257812 -196.89525391 262.35257812 -197.80859375 260.671875 C-210.83061686 235.72991536 -217.44122757 207.55160039 -217.3125 179.4375 C-217.30686035 178.12974609 -217.3012207 176.82199219 -217.29541016 175.47460938 C-216.678584 125.71322758 -194.4582033 80.56936153 -159.71875 45.7109375 C-116.89670644 5.38195812 -57.34498635 -10.1502393 0 0 Z " fill="#FF6B47" transform="translate(285,71)"/>
<path d="M0 0 C2.9375 0.5625 2.9375 0.5625 4.59770489 2.13980865 C6.39135175 5.38317975 6.35030752 8.2782761 6.3117218 11.88806152 C6.31569621 12.62777994 6.31967061 13.36749835 6.32376546 14.12963247 C6.33339335 16.60940336 6.32156765 19.08860444 6.30981445 21.56835938 C6.31224226 23.34569003 6.31596147 25.12301933 6.32087708 26.90034485 C6.33029123 31.72880774 6.32085621 36.55706812 6.30754495 41.38551521 C6.29623827 46.43519246 6.30033735 51.48485963 6.30229187 56.5345459 C6.30317509 65.01508904 6.29208853 73.49555229 6.27368164 81.97607422 C6.2525136 91.78497796 6.24900398 101.59376464 6.2552436 111.4026866 C6.26093563 120.8330741 6.25529349 130.26342033 6.24407005 139.69380188 C6.23942193 143.7096686 6.23855114 147.7255101 6.2406559 151.74137878 C6.24253768 156.46916189 6.23444332 161.19682563 6.2185955 165.92458153 C6.21434812 167.66123651 6.21350515 169.39790359 6.21628571 171.13456154 C6.2195017 173.50215211 6.21044051 175.86938472 6.19819641 178.23693848 C6.20197573 178.92682027 6.20575506 179.61670207 6.20964891 180.32748938 C6.17727646 183.8576566 6.09765402 186.67746592 3.9375 189.5625 C0.5 190.5 0.5 190.5 -3.0625 190.5625 C-5.7104735 188.79718433 -6.0394986 187.63150421 -7.0625 184.5625 C-7.16357294 182.18992843 -7.20192866 179.81456071 -7.20967102 177.43984985 C-7.21334771 176.70985854 -7.2170244 175.97986722 -7.2208125 175.22775495 C-7.23184951 172.77503919 -7.23569316 170.32236579 -7.23950195 167.86962891 C-7.24576647 166.11377325 -7.25241326 164.35791892 -7.25941467 162.60206604 C-7.27682253 157.82727147 -7.28737534 153.05248691 -7.2956202 148.27766848 C-7.30076966 145.2957711 -7.30684535 142.31387684 -7.31313133 139.33198166 C-7.3321808 130.00572453 -7.34641379 120.67947531 -7.3547433 111.35320246 C-7.36452295 100.58077336 -7.39086246 89.80854934 -7.43124419 79.03619254 C-7.46137517 70.71340337 -7.47620921 62.39067311 -7.47952431 54.06783044 C-7.48187777 49.09496934 -7.49087693 44.12232739 -7.51598549 39.14952469 C-7.5392192 34.4725815 -7.54351846 29.79600253 -7.53322411 25.11901665 C-7.53272753 23.40211592 -7.53908384 21.68519754 -7.55278015 19.96835136 C-7.57043057 17.62483446 -7.56342792 15.28263447 -7.55024719 12.93911743 C-7.55263555 11.6276153 -7.5550239 10.31611317 -7.55748463 8.96486855 C-6.83150847 3.97473691 -5.10363899 0.93740308 0 0 Z " fill="#FFFBFA" transform="translate(193.0625,155.4375)"/>
<path d="M0 0 C1.0209375 -0.01160156 1.0209375 -0.01160156 2.0625 -0.0234375 C4.59186798 0.49671479 5.38450939 1.38442948 7 3.375 C7.38031673 5.26626587 7.38031673 5.26626587 7.38768005 7.43603516 C7.402537 8.67259857 7.402537 8.67259857 7.41769409 9.93414307 C7.41094162 11.28545319 7.41094162 11.28545319 7.40405273 12.6640625 C7.41091599 13.61553162 7.41777924 14.56700073 7.42485046 15.54730225 C7.44318048 18.69835247 7.43927242 21.84890781 7.43359375 25 C7.43815227 27.1857113 7.44345684 29.37142115 7.44947815 31.55712891 C7.45842123 36.14035868 7.45597211 40.72341431 7.44604492 45.30664062 C7.43454839 51.18838739 7.45477151 57.06953444 7.48396206 62.95120239 C7.5022813 67.46528967 7.50204023 71.97923206 7.49632454 76.49334717 C7.49617083 78.66234173 7.50225593 80.83134582 7.51461601 83.00030518 C7.52944495 86.02923559 7.51890878 89.05704295 7.50170898 92.0859375 C7.51621094 93.43724762 7.51621094 93.43724762 7.53100586 94.81585693 C7.45898797 100.85296919 7.45898797 100.85296919 5.19129944 103.43212891 C1.97574172 104.81571728 -0.54648469 104.75174712 -4 104.375 C-6.01612141 102.86130291 -6.87992701 101.97652544 -7.37752342 99.48373413 C-7.3786545 98.76771027 -7.37978558 98.0516864 -7.38095093 97.31396484 C-7.39364014 96.07740143 -7.39364014 96.07740143 -7.40658569 94.81585693 C-7.400513 93.91498352 -7.39444031 93.01411011 -7.38818359 92.0859375 C-7.39344055 91.13446838 -7.39869751 90.18299927 -7.40411377 89.20269775 C-7.41733808 86.05163244 -7.40856696 82.90107062 -7.3984375 79.75 C-7.40045753 77.56428938 -7.40336838 75.37857941 -7.40713501 73.19287109 C-7.41156167 68.60963532 -7.40511622 64.0265748 -7.39111328 59.44335938 C-7.37402134 53.56169688 -7.38386068 47.68044503 -7.40183067 41.79879761 C-7.41265921 37.28471774 -7.40922642 32.7707356 -7.4014473 28.25665283 C-7.39944272 26.08766634 -7.40191355 23.91867104 -7.40888596 21.74969482 C-7.41648503 18.72091082 -7.40491764 15.69279649 -7.38818359 12.6640625 C-7.39729263 11.31275238 -7.39729263 11.31275238 -7.40658569 9.93414307 C-7.39812622 9.10976746 -7.38966675 8.28539185 -7.38095093 7.43603516 C-7.37981985 6.72001129 -7.37868877 6.00398743 -7.37752342 5.26626587 C-6.56263545 1.18395015 -3.89000037 -0.04420455 0 0 Z " fill="#FFFEFE" transform="translate(270,198.625)"/>
<path d="M0 0 C1.0209375 -0.01160156 1.0209375 -0.01160156 2.0625 -0.0234375 C4.591885 0.49671829 5.38478991 1.3841784 7 3.375 C7.37752342 5.26626587 7.37752342 5.26626587 7.38095093 7.43603516 C7.3894104 8.26041077 7.39786987 9.08478638 7.40658569 9.93414307 C7.400513 10.83501648 7.39444031 11.73588989 7.38818359 12.6640625 C7.39344055 13.61553162 7.39869751 14.56700073 7.40411377 15.54730225 C7.41733808 18.69836756 7.40856696 21.84892938 7.3984375 25 C7.40045753 27.18571062 7.40336838 29.37142059 7.40713501 31.55712891 C7.41156167 36.14036468 7.40511622 40.7234252 7.39111328 45.30664062 C7.37402134 51.18830312 7.38386068 57.06955497 7.40183067 62.95120239 C7.41265921 67.46528226 7.40922642 71.9792644 7.4014473 76.49334717 C7.39944272 78.66233366 7.40191355 80.83132896 7.40888596 83.00030518 C7.41648503 86.02908918 7.40491764 89.05720351 7.38818359 92.0859375 C7.39729263 93.43724762 7.39729263 93.43724762 7.40658569 94.81585693 C7.39389648 96.05242035 7.39389648 96.05242035 7.38095093 97.31396484 C7.37981985 98.02998871 7.37868877 98.74601257 7.37752342 99.48373413 C6.88755581 101.93830773 5.93286864 102.834202 4 104.375 C2.0625 104.80859375 2.0625 104.80859375 0 104.8125 C-0.680625 104.83183594 -1.36125 104.85117187 -2.0625 104.87109375 C-4 104.375 -4 104.375 -5.59683228 102.92591858 C-7.72572533 99.05565221 -7.41792993 95.41361135 -7.38818359 91.06420898 C-7.39344055 90.12234741 -7.39869751 89.18048584 -7.40411377 88.21008301 C-7.41731742 85.0969179 -7.40857496 81.98426405 -7.3984375 78.87109375 C-7.40045796 76.7092326 -7.40336916 74.54737212 -7.40713501 72.38551331 C-7.41155872 67.85533151 -7.40512503 63.32532718 -7.39111328 58.79516602 C-7.37401128 52.98191188 -7.38386889 47.16907294 -7.40183067 41.35583401 C-7.41265843 36.89236814 -7.40922696 32.42900111 -7.4014473 27.9655323 C-7.39944303 25.82166558 -7.40191246 23.67778995 -7.40888596 21.53393364 C-7.41648488 18.54117846 -7.40491837 15.54910104 -7.38818359 12.55639648 C-7.39425629 11.66644485 -7.40032898 10.77649323 -7.40658569 9.85957336 C-7.39812622 9.04505707 -7.38966675 8.23054077 -7.38095093 7.39134216 C-7.37981985 6.68399146 -7.37868877 5.97664076 -7.37752342 5.24785519 C-6.55706117 1.17762564 -3.87670305 -0.04405344 0 0 Z " fill="#FFFEFE" transform="translate(219,198.625)"/>
<path d="M0 0 C3.5 0.4375 3.5 0.4375 5.19494057 1.71382236 C6.78073499 3.80828512 6.87678529 4.84874637 6.88095093 7.45384216 C6.8894104 8.26835846 6.89786987 9.08287476 6.90658569 9.92207336 C6.900513 10.81202499 6.89444031 11.70197662 6.88818359 12.61889648 C6.89344055 13.55900574 6.89869751 14.49911499 6.90411377 15.4677124 C6.91733879 18.58150756 6.90856601 21.69479321 6.8984375 24.80859375 C6.90045768 26.96948851 6.90336865 29.1303826 6.90713501 31.29127502 C6.9115619 35.82323692 6.9051161 40.35502158 6.89111328 44.88696289 C6.87403154 50.69902647 6.88385405 56.51067416 6.90183067 62.32272243 C6.9126673 66.78623085 6.90922252 71.24964056 6.9014473 75.71315193 C6.89944443 77.85619213 6.90190758 79.99924127 6.90888596 82.14227104 C6.91649715 85.13732535 6.90490007 88.13170497 6.88818359 91.12670898 C6.89729263 92.45860008 6.89729263 92.45860008 6.90658569 93.81739807 C6.86985289 97.36644274 6.82819019 99.79629052 5.19448853 102.98817444 C3.5 104.4375 3.5 104.4375 0 104.9375 C-3.5 104.4375 -3.5 104.4375 -5.19448853 102.98144531 C-7.17281716 99.12643525 -6.91777896 95.50847597 -6.88818359 91.234375 C-6.89344055 90.30387329 -6.89869751 89.37337158 -6.90411377 88.41467285 C-6.91731789 85.33877783 -6.9085741 82.26340029 -6.8984375 79.1875 C-6.90045811 77.05045472 -6.90336944 74.91341011 -6.90713501 72.77636719 C-6.91155893 68.29745926 -6.90512501 63.81873082 -6.89111328 59.33984375 C-6.87402149 53.5961885 -6.88386229 47.85295379 -6.90183067 42.10931396 C-6.9126666 37.69641954 -6.90922302 33.28362496 -6.9014473 28.87072754 C-6.89944477 26.75280711 -6.90190641 24.63487765 -6.90888596 22.51696777 C-6.91649714 19.55794225 -6.9049006 16.59959961 -6.88818359 13.640625 C-6.89425629 12.76361938 -6.90032898 11.88661377 -6.90658569 10.98303223 C-6.8696404 7.45651605 -6.81955888 5.06115488 -5.19448853 1.88964844 C-3.5 0.4375 -3.5 0.4375 0 0 Z " fill="#FFFBFA" transform="translate(323.5,198.5625)"/>
<path d="M0 0 C2.04866146 1.75566874 2.88637534 3.20956317 3.27161789 5.88952637 C3.39252043 8.33239794 3.4051195 10.75727699 3.38818359 13.203125 C3.39344055 14.13362671 3.39869751 15.06412842 3.40411377 16.02282715 C3.41731789 19.09872217 3.4085741 22.17409971 3.3984375 25.25 C3.40045811 27.38704528 3.40336944 29.52408989 3.40713501 31.66113281 C3.41155893 36.14004074 3.40512501 40.61876918 3.39111328 45.09765625 C3.37402149 50.8413115 3.38386229 56.58454621 3.40183067 62.32818604 C3.4126666 66.74108046 3.40922302 71.15387504 3.4014473 75.56677246 C3.39944477 77.68469289 3.40190641 79.80262235 3.40888596 81.92053223 C3.41649714 84.87955775 3.4049006 87.83790039 3.38818359 90.796875 C3.39425629 91.67388062 3.40032898 92.55088623 3.40658569 93.45446777 C3.36965433 96.97965432 3.32093037 99.37462877 1.69448853 102.54394531 C0 104 0 104 -3.5 104.5 C-7 104 -7 104 -8.69448853 102.55067444 C-10.68334987 98.66488875 -10.41763189 94.99503348 -10.38818359 90.68920898 C-10.39344055 89.74734741 -10.39869751 88.80548584 -10.40411377 87.83508301 C-10.41731742 84.7219179 -10.40857496 81.60926405 -10.3984375 78.49609375 C-10.40045796 76.3342326 -10.40336916 74.17237212 -10.40713501 72.01051331 C-10.41155872 67.48033151 -10.40512503 62.95032718 -10.39111328 58.42016602 C-10.37401128 52.60691188 -10.38386889 46.79407294 -10.40183067 40.98083401 C-10.41265843 36.51736814 -10.40922696 32.05400111 -10.4014473 27.5905323 C-10.39944303 25.44666558 -10.40191246 23.30278995 -10.40888596 21.15893364 C-10.41648488 18.16617846 -10.40491837 15.17410104 -10.38818359 12.18139648 C-10.39425629 11.29144485 -10.40032898 10.40149323 -10.40658569 9.48457336 C-10.39812622 8.67005707 -10.38966675 7.85554077 -10.38095093 7.01634216 C-10.37981985 6.30899146 -10.37868877 5.60164076 -10.37752342 4.87285519 C-9.25995141 -0.67130556 -4.83549229 -0.60443654 0 0 Z " fill="#FFFBFA" transform="translate(169,199)"/>
<path d="M0 0 C2.89565945 2.06086743 4.72828376 3.70852012 5.47836304 7.27368164 C5.6794732 10.13081 5.71905509 12.94828729 5.69921875 15.8125 C5.70637405 16.85897705 5.71352936 17.9054541 5.72090149 18.98364258 C5.72867363 21.19253691 5.72367675 23.40150813 5.70678711 25.61035156 C5.687562 28.98910414 5.72695348 32.3637438 5.77148438 35.7421875 C5.77177474 37.89062745 5.76863469 40.03907117 5.76171875 42.1875 C5.77700119 43.19594971 5.79228363 44.20439941 5.80802917 45.2434082 C5.69531532 52.03041041 5.69531532 52.03041041 3.72525024 54.77758789 C1.06008126 57.13900049 -0.61086614 57.99236992 -4.1875 58.0625 C-7.44838733 56.83060923 -8.22643854 55.94065244 -10 53 C-10.39440918 50.68566895 -10.39440918 50.68566895 -10.41992188 48.11132812 C-10.43583374 47.14352417 -10.45174561 46.17572021 -10.46813965 45.17858887 C-10.46834106 44.13996704 -10.46854248 43.10134521 -10.46875 42.03125 C-10.47636353 40.95879028 -10.48397705 39.88633057 -10.49182129 38.78137207 C-10.50262063 36.51524178 -10.50547608 34.24906172 -10.50097656 31.98291016 C-10.50000351 28.51250506 -10.54164481 25.04430503 -10.5859375 21.57421875 C-10.59114388 19.37240045 -10.5938327 17.17057446 -10.59375 14.96875 C-10.61014526 13.93012817 -10.62654053 12.89150635 -10.64343262 11.82141113 C-10.57437771 4.6394016 -10.57437771 4.6394016 -7.61914062 1.34960938 C-4.62960855 -0.19085793 -3.29232748 -0.74077368 0 0 Z " fill="#FFF9F8" transform="translate(300,222)"/>
<path d="M0 0 C2.12524414 1.34570312 2.12524414 1.34570312 4 4 C4.60326839 7.6522951 4.53605204 11.27446159 4.49609375 14.96875 C4.49754898 16.04120972 4.49900421 17.11366943 4.50050354 18.21862793 C4.49884444 20.48480955 4.48728208 22.75100243 4.46655273 25.01708984 C4.43760727 28.4871402 4.44594252 31.95566221 4.45898438 35.42578125 C4.4527467 37.6276116 4.44435553 39.82943712 4.43359375 42.03125 C4.43652939 43.06987183 4.43946503 44.10849365 4.44248962 45.17858887 C4.42346336 46.6302948 4.42346336 46.6302948 4.40405273 48.11132812 C4.39864975 48.9608606 4.39324677 49.81039307 4.38768005 50.68566895 C3.90711806 53.55447668 3.02923528 54.93216747 1 57 C-2.5 57.5 -2.5 57.5 -6 57 C-8.80377248 54.14289812 -9.37898366 52.05303651 -9.40405273 48.11132812 C-9.41673691 47.14352417 -9.42942108 46.17572021 -9.44248962 45.17858887 C-9.43955399 44.13996704 -9.43661835 43.10134521 -9.43359375 42.03125 C-9.4388356 40.95879028 -9.44407745 39.88633057 -9.44947815 38.78137207 C-9.45589803 36.5152269 -9.45456182 34.24904841 -9.44604492 31.98291016 C-9.43753127 28.51274428 -9.46630454 25.04422215 -9.49804688 21.57421875 C-9.49965885 19.37239633 -9.49908142 17.17057099 -9.49609375 14.96875 C-9.50732773 13.93012817 -9.51856171 12.89150635 -9.53013611 11.82141113 C-9.4606446 4.65218493 -9.4606446 4.65218493 -7.12524414 1.34570312 C-4.43241268 -0.3593959 -3.12930897 -0.62586179 0 0 Z " fill="#FFFBFA" transform="translate(248,222)"/>
<path d="M0 0 C2.23727405 1.63100443 2.920195 2.5230496 3.38095093 5.2767334 C3.38333771 6.16703247 3.38572449 7.05733154 3.38818359 7.97460938 C3.40236832 9.4913324 3.40236832 9.4913324 3.4168396 11.03869629 C3.41076691 12.12936401 3.40469421 13.22003174 3.3984375 14.34375 C3.40274277 16.02470764 3.40274277 16.02470764 3.40713501 17.73962402 C3.40917747 20.11011256 3.40363499 22.48061788 3.39111328 24.85107422 C3.375063 28.48573383 3.39095669 32.11928135 3.41015625 35.75390625 C3.40817385 38.05468996 3.40433025 40.35547298 3.3984375 42.65625 C3.40754654 44.29225159 3.40754654 44.29225159 3.4168396 45.96130371 C3.40738312 46.97245239 3.39792664 47.98360107 3.38818359 49.02539062 C3.38579681 49.9156897 3.38341003 50.80598877 3.38095093 51.7232666 C2.920195 54.4769504 2.23727405 55.36899557 0 57 C-5.12179441 57.6402243 -5.12179441 57.6402243 -7.66323853 55.78747559 C-9.43191213 53.42246062 -9.3803062 51.96375823 -9.38818359 49.02539062 C-9.39764008 48.01424194 -9.40709656 47.00309326 -9.4168396 45.96130371 C-9.41076691 44.87063599 -9.40469421 43.77996826 -9.3984375 42.65625 C-9.40130768 41.53561157 -9.40417786 40.41497314 -9.40713501 39.26037598 C-9.40917747 36.88988744 -9.40363499 34.51938212 -9.39111328 32.14892578 C-9.375063 28.51426617 -9.39095669 24.88071865 -9.41015625 21.24609375 C-9.40817385 18.94531004 -9.40433025 16.64452702 -9.3984375 14.34375 C-9.40451019 13.25308228 -9.41058289 12.16241455 -9.4168396 11.03869629 C-9.40738312 10.02754761 -9.39792664 9.01639893 -9.38818359 7.97460938 C-9.38579681 7.0843103 -9.38341003 6.19401123 -9.38095093 5.2767334 C-8.47669417 -0.12751005 -4.91383114 -0.61422889 0 0 Z " fill="#FFFEFE" transform="translate(354,222)"/>
<path d="M0 0 C3.375 1 3.375 1 5.375 4 C5.7838979 8.26593902 5.74660537 12.54088242 5.74560547 16.82397461 C5.74997836 18.92709356 5.78630479 21.02811176 5.82421875 23.13085938 C5.8300875 24.47134701 5.8340565 25.81184459 5.8359375 27.15234375 C5.84415527 28.36913818 5.85237305 29.58593262 5.86083984 30.83959961 C5.375 34 5.375 34 3.53759766 36.42797852 C1.375 38 1.375 38 -1.6875 38 C-5.12473857 36.82987623 -5.84027083 36.10016829 -7.625 33 C-8.25914586 28.37782385 -8.08832886 23.72343569 -8.0625 19.0625 C-8.08248047 17.78697266 -8.10246094 16.51144531 -8.12304688 15.19726562 C-8.12240234 13.96814453 -8.12175781 12.73902344 -8.12109375 11.47265625 C-8.12387329 9.79055054 -8.12387329 9.79055054 -8.12670898 8.07446289 C-7.27299745 2.84293522 -5.43249015 0 0 0 Z " fill="#FFF8F7" transform="translate(142.625,232)"/>
<path d="M0 0 C3.35946971 0.67189394 4.39030121 1.8207732 6.5 4.5 C7.00170898 7.55273438 7.00170898 7.55273438 6.99609375 11.09375 C6.99673828 12.37121094 6.99738281 13.64867187 6.99804688 14.96484375 C6.98765381 15.62726074 6.97726074 16.28967773 6.96655273 16.97216797 C6.93758598 18.99399898 6.94595065 21.01320672 6.95898438 23.03515625 C6.89506048 32.78109166 6.89506048 32.78109166 5.19165039 35.88085938 C3.5 37.5 3.5 37.5 0 38 C-3.5 37.5 -3.5 37.5 -5.19165039 35.88085938 C-7.68820639 31.33777034 -6.97872825 26.09806502 -6.94604492 21.02783203 C-6.93752446 19.00580367 -6.9663264 16.98659393 -6.99804688 14.96484375 C-6.99740234 13.68738281 -6.99675781 12.40992188 -6.99609375 11.09375 C-6.99794678 9.92521484 -6.9997998 8.75667969 -7.00170898 7.55273438 C-6.28316891 3.18065405 -4.39704646 0.87940929 0 0 Z " fill="#FFFAF9" transform="translate(374.5,231.5)"/>
</svg>
