<svg xmlns="http://www.w3.org/2000/svg" xmlns:xlink="http://www.w3.org/1999/xlink" width="500" zoomAndPan="magnify" viewBox="0 0 375 374.999991" height="500" preserveAspectRatio="xMidYMid meet" version="1.0"><defs><clipPath id="78abe9bf50"><path d="M 51.089844 51.089844 L 324 51.089844 L 324 324 L 51.089844 324 Z M 51.089844 51.089844 " clip-rule="nonzero"/></clipPath></defs><g clip-path="url(#78abe9bf50)"><path fill="#ff6b47" d="M 323.902344 187.496094 C 323.902344 189.726562 323.847656 191.957031 323.738281 194.1875 C 323.628906 196.417969 323.464844 198.644531 323.246094 200.867188 C 323.027344 203.085938 322.753906 205.300781 322.425781 207.511719 C 322.097656 209.71875 321.714844 211.917969 321.28125 214.105469 C 320.84375 216.296875 320.355469 218.472656 319.8125 220.640625 C 319.269531 222.804688 318.675781 224.957031 318.027344 227.09375 C 317.378906 229.226562 316.679688 231.347656 315.929688 233.449219 C 315.175781 235.550781 314.371094 237.632812 313.519531 239.695312 C 312.664062 241.757812 311.757812 243.796875 310.804688 245.816406 C 309.851562 247.835938 308.847656 249.828125 307.796875 251.796875 C 306.742188 253.765625 305.644531 255.707031 304.496094 257.621094 C 303.347656 259.535156 302.152344 261.421875 300.914062 263.277344 C 299.671875 265.136719 298.386719 266.960938 297.058594 268.753906 C 295.726562 270.546875 294.355469 272.304688 292.9375 274.03125 C 291.523438 275.757812 290.066406 277.445312 288.566406 279.101562 C 287.066406 280.753906 285.527344 282.371094 283.949219 283.949219 C 282.371094 285.527344 280.753906 287.066406 279.101562 288.566406 C 277.445312 290.066406 275.757812 291.523438 274.03125 292.9375 C 272.304688 294.355469 270.546875 295.726562 268.753906 297.058594 C 266.960938 298.386719 265.136719 299.671875 263.277344 300.914062 C 261.421875 302.152344 259.535156 303.347656 257.621094 304.496094 C 255.707031 305.644531 253.765625 306.742188 251.796875 307.796875 C 249.828125 308.847656 247.835938 309.851562 245.816406 310.804688 C 243.796875 311.757812 241.757812 312.664062 239.695312 313.519531 C 237.632812 314.371094 235.550781 315.175781 233.449219 315.929688 C 231.347656 316.679688 229.226562 317.378906 227.09375 318.027344 C 224.957031 318.675781 222.804688 319.269531 220.640625 319.8125 C 218.472656 320.355469 216.296875 320.84375 214.105469 321.28125 C 211.917969 321.714844 209.71875 322.097656 207.511719 322.425781 C 205.300781 322.753906 203.085938 323.027344 200.867188 323.246094 C 198.644531 323.464844 196.417969 323.628906 194.1875 323.738281 C 191.957031 323.847656 189.726562 323.902344 187.496094 323.902344 C 185.261719 323.902344 183.03125 323.847656 180.800781 323.738281 C 178.574219 323.628906 176.347656 323.464844 174.125 323.246094 C 171.902344 323.027344 169.6875 322.753906 167.480469 322.425781 C 165.273438 322.097656 163.074219 321.714844 160.882812 321.28125 C 158.695312 320.84375 156.515625 320.355469 154.351562 319.8125 C 152.1875 319.269531 150.035156 318.675781 147.898438 318.027344 C 145.761719 317.378906 143.644531 316.679688 141.542969 315.929688 C 139.441406 315.175781 137.359375 314.371094 135.296875 313.519531 C 133.234375 312.664062 131.191406 311.757812 129.175781 310.804688 C 127.15625 309.851562 125.164062 308.847656 123.195312 307.796875 C 121.226562 306.742188 119.285156 305.644531 117.367188 304.496094 C 115.453125 303.347656 113.570312 302.152344 111.710938 300.914062 C 109.855469 299.671875 108.03125 298.386719 106.238281 297.058594 C 104.445312 295.726562 102.6875 294.355469 100.960938 292.9375 C 99.234375 291.523438 97.542969 290.066406 95.890625 288.566406 C 94.238281 287.066406 92.621094 285.527344 91.042969 283.949219 C 89.464844 282.371094 87.925781 280.753906 86.425781 279.101562 C 84.925781 277.445312 83.46875 275.757812 82.050781 274.03125 C 80.636719 272.304688 79.261719 270.546875 77.933594 268.753906 C 76.601562 266.960938 75.316406 265.136719 74.078125 263.277344 C 72.835938 261.421875 71.644531 259.535156 70.496094 257.621094 C 69.347656 255.707031 68.25 253.765625 67.195312 251.796875 C 66.144531 249.828125 65.140625 247.835938 64.1875 245.816406 C 63.230469 243.796875 62.328125 241.757812 61.472656 239.695312 C 60.617188 237.632812 59.816406 235.550781 59.0625 233.449219 C 58.3125 231.347656 57.609375 229.226562 56.960938 227.09375 C 56.316406 224.957031 55.71875 222.804688 55.175781 220.640625 C 54.632812 218.472656 54.144531 216.296875 53.710938 214.105469 C 53.273438 211.917969 52.894531 209.71875 52.566406 207.511719 C 52.238281 205.300781 51.964844 203.085938 51.746094 200.867188 C 51.527344 198.644531 51.363281 196.417969 51.253906 194.1875 C 51.144531 191.957031 51.089844 189.726562 51.089844 187.496094 C 51.089844 185.261719 51.144531 183.03125 51.253906 180.800781 C 51.363281 178.574219 51.527344 176.347656 51.746094 174.125 C 51.964844 171.902344 52.238281 169.6875 52.566406 167.480469 C 52.894531 165.273438 53.273438 163.074219 53.710938 160.882812 C 54.144531 158.695312 54.632812 156.515625 55.175781 154.351562 C 55.71875 152.1875 56.316406 150.035156 56.960938 147.898438 C 57.609375 145.761719 58.3125 143.644531 59.0625 141.542969 C 59.816406 139.441406 60.617188 137.359375 61.472656 135.296875 C 62.328125 133.234375 63.230469 131.191406 64.1875 129.175781 C 65.140625 127.15625 66.144531 125.164062 67.195312 123.195312 C 68.25 121.226562 69.347656 119.285156 70.496094 117.367188 C 71.644531 115.453125 72.835938 113.570312 74.078125 111.710938 C 75.316406 109.855469 76.601562 108.03125 77.933594 106.238281 C 79.261719 104.445312 80.636719 102.6875 82.050781 100.960938 C 83.46875 99.234375 84.925781 97.542969 86.425781 95.890625 C 87.925781 94.238281 89.464844 92.621094 91.042969 91.042969 C 92.621094 89.464844 94.238281 87.925781 95.890625 86.425781 C 97.542969 84.925781 99.234375 83.46875 100.960938 82.050781 C 102.6875 80.636719 104.445312 79.261719 106.238281 77.933594 C 108.03125 76.601562 109.855469 75.316406 111.710938 74.078125 C 113.566406 72.835938 115.453125 71.644531 117.367188 70.496094 C 119.285156 69.347656 121.226562 68.25 123.195312 67.195312 C 125.164062 66.144531 127.15625 65.140625 129.175781 64.1875 C 131.191406 63.230469 133.234375 62.328125 135.296875 61.472656 C 137.359375 60.617188 139.441406 59.816406 141.542969 59.0625 C 143.644531 58.3125 145.761719 57.609375 147.898438 56.960938 C 150.035156 56.316406 152.1875 55.71875 154.351562 55.175781 C 156.515625 54.632812 158.695312 54.144531 160.882812 53.710938 C 163.074219 53.273438 165.273438 52.894531 167.480469 52.566406 C 169.6875 52.238281 171.902344 51.964844 174.125 51.746094 C 176.347656 51.527344 178.574219 51.363281 180.800781 51.253906 C 183.03125 51.144531 185.261719 51.089844 187.496094 51.089844 C 189.726562 51.089844 191.957031 51.144531 194.1875 51.253906 C 196.417969 51.363281 198.644531 51.527344 200.867188 51.746094 C 203.085938 51.964844 205.300781 52.238281 207.511719 52.566406 C 209.71875 52.894531 211.917969 53.273438 214.105469 53.710938 C 216.296875 54.144531 218.472656 54.632812 220.640625 55.175781 C 222.804688 55.71875 224.957031 56.316406 227.09375 56.960938 C 229.226562 57.609375 231.347656 58.3125 233.449219 59.0625 C 235.550781 59.816406 237.632812 60.617188 239.695312 61.472656 C 241.757812 62.328125 243.796875 63.230469 245.816406 64.1875 C 247.835938 65.140625 249.828125 66.144531 251.796875 67.195312 C 253.765625 68.25 255.707031 69.347656 257.621094 70.496094 C 259.535156 71.644531 261.421875 72.835938 263.277344 74.078125 C 265.136719 75.316406 266.960938 76.601562 268.753906 77.933594 C 270.546875 79.261719 272.304688 80.636719 274.03125 82.050781 C 275.757812 83.46875 277.445312 84.925781 279.101562 86.425781 C 280.753906 87.925781 282.371094 89.464844 283.949219 91.042969 C 285.527344 92.621094 287.066406 94.238281 288.566406 95.890625 C 290.066406 97.542969 291.523438 99.234375 292.9375 100.960938 C 294.355469 102.6875 295.726562 104.445312 297.058594 106.238281 C 298.386719 108.03125 299.671875 109.855469 300.914062 111.710938 C 302.152344 113.566406 303.347656 115.453125 304.496094 117.367188 C 305.644531 119.285156 306.742188 121.226562 307.796875 123.195312 C 308.847656 125.164062 309.851562 127.15625 310.804688 129.175781 C 311.757812 131.191406 312.664062 133.234375 313.519531 135.296875 C 314.371094 137.359375 315.175781 139.441406 315.929688 141.542969 C 316.679688 143.644531 317.378906 145.761719 318.027344 147.898438 C 318.675781 150.035156 319.269531 152.1875 319.8125 154.351562 C 320.355469 156.515625 320.84375 158.695312 321.28125 160.882812 C 321.714844 163.074219 322.097656 165.273438 322.425781 167.480469 C 322.753906 169.6875 323.027344 171.902344 323.246094 174.125 C 323.464844 176.347656 323.628906 178.574219 323.738281 180.800781 C 323.847656 183.03125 323.902344 185.261719 323.902344 187.496094 Z M 323.902344 187.496094 " fill-opacity="1" fill-rule="nonzero"/></g><path fill="#ffffff" d="M 280.933594 202.226562 C 278.207031 202.226562 276.160156 199.910156 276.160156 197.179688 L 276.160156 179.175781 C 276.160156 176.445312 278.207031 174.128906 280.933594 174.128906 C 283.660156 174.128906 285.707031 176.445312 285.707031 179.175781 L 285.707031 197.316406 C 285.707031 200.042969 283.660156 202.226562 280.933594 202.226562 Z M 280.933594 202.226562 " fill-opacity="1" fill-rule="nonzero"/><path fill="#ffffff" d="M 106.332031 202.226562 C 103.605469 202.226562 101.558594 199.910156 101.558594 197.179688 L 101.558594 179.175781 C 101.558594 176.445312 103.605469 174.128906 106.332031 174.128906 C 109.0625 174.128906 111.109375 176.445312 111.109375 179.175781 L 111.109375 197.316406 C 111.109375 200.042969 109.0625 202.226562 106.332031 202.226562 Z M 106.332031 202.226562 " fill-opacity="1" fill-rule="nonzero"/><path fill="#ffffff" d="M 144.527344 259.65625 C 141.664062 259.65625 139.753906 256.925781 139.753906 253.652344 L 139.753906 122.703125 C 139.753906 119.429688 141.664062 116.699219 144.527344 116.699219 C 147.390625 116.699219 149.300781 119.429688 149.300781 122.703125 L 149.300781 253.789062 C 149.300781 257.0625 147.253906 259.65625 144.527344 259.65625 Z M 144.527344 259.65625 " fill-opacity="1" fill-rule="nonzero"/><path fill="#ffffff" d="M 124.066406 227.597656 C 121.203125 227.597656 119.292969 225.28125 119.292969 222.550781 L 119.292969 153.941406 C 119.292969 151.074219 121.203125 148.890625 124.066406 148.890625 C 126.929688 148.890625 128.839844 151.210938 128.839844 153.941406 L 128.839844 222.550781 C 128.839844 225.28125 126.792969 227.597656 124.066406 227.597656 Z M 124.066406 227.597656 " fill-opacity="1" fill-rule="nonzero"/><path fill="#ffffff" d="M 164.304688 227.597656 C 161.441406 227.597656 158.851562 225.28125 158.851562 222.550781 L 158.851562 153.941406 C 158.851562 151.074219 161.441406 148.890625 164.304688 148.890625 C 167.171875 148.890625 169.761719 151.210938 169.761719 153.941406 L 169.761719 222.550781 C 169.761719 225.28125 167.035156 227.597656 164.304688 227.597656 Z M 164.304688 227.597656 " fill-opacity="1" fill-rule="nonzero"/><path fill="#ffffff" d="M 202.5 227.597656 C 199.636719 227.597656 197.042969 225.28125 197.042969 222.550781 L 197.042969 153.941406 C 197.042969 151.074219 199.636719 148.890625 202.5 148.890625 C 205.363281 148.890625 207.957031 151.210938 207.957031 153.941406 L 207.957031 222.550781 C 207.957031 225.28125 205.226562 227.597656 202.5 227.597656 Z M 202.5 227.597656 " fill-opacity="1" fill-rule="nonzero"/><path fill="#ffffff" d="M 242.738281 227.597656 C 239.875 227.597656 237.964844 225.28125 237.964844 222.550781 L 237.964844 153.941406 C 237.964844 151.074219 239.875 148.890625 242.738281 148.890625 C 245.605469 148.890625 247.515625 151.210938 247.515625 153.941406 L 247.515625 222.550781 C 247.515625 225.28125 245.46875 227.597656 242.738281 227.597656 Z M 242.738281 227.597656 " fill-opacity="1" fill-rule="nonzero"/><path fill="#ffffff" d="M 222.960938 209.730469 C 220.097656 209.730469 217.503906 207.410156 217.503906 204.683594 L 217.503906 171.671875 C 217.503906 168.808594 220.097656 166.625 222.960938 166.625 C 225.824219 166.625 228.417969 168.945312 228.417969 171.671875 L 228.417969 204.683594 C 228.417969 207.546875 225.6875 209.730469 222.960938 209.730469 Z M 222.960938 209.730469 " fill-opacity="1" fill-rule="nonzero"/><path fill="#ffffff" d="M 263.199219 209.59375 C 260.335938 209.59375 258.425781 207.273438 258.425781 204.546875 L 258.425781 171.398438 C 258.425781 168.535156 260.335938 166.351562 263.199219 166.351562 C 266.066406 166.351562 267.976562 168.671875 267.976562 171.398438 L 267.976562 204.410156 C 267.976562 207.273438 265.929688 209.59375 263.199219 209.59375 Z M 263.199219 209.59375 " fill-opacity="1" fill-rule="nonzero"/><path fill="#ffffff" d="M 184.085938 209.730469 C 181.222656 209.730469 179.3125 207.410156 179.3125 204.683594 L 179.3125 171.671875 C 179.3125 168.808594 181.222656 166.625 184.085938 166.625 C 186.949219 166.625 188.859375 168.945312 188.859375 171.671875 L 188.859375 204.683594 C 188.859375 207.546875 186.8125 209.730469 184.085938 209.730469 Z M 184.085938 209.730469 " fill-opacity="1" fill-rule="nonzero"/></svg>