<svg xmlns="http://www.w3.org/2000/svg" viewBox="0 0 84 112" fill="none">
  <path
    fill="#38b6ff"
    d="M34.258 79.293c-2.058 0-3.988-.801-5.441-2.254L18.652 66.879l-2.199 2.199c-2.242 2.242-5.453 2.879-8.383 1.664-2.93-1.211-4.75-3.934-4.75-7.106v-15.277c0-3.172 1.82-5.895 4.75-7.11 2.93-1.215 6.145-.574 8.387 1.668l2.199 2.199 10.16-10.164c1.453-1.449 3.383-2.25 5.441-2.25 3.168 0 5.894 1.82 7.109 4.75 1.211 2.93.574 6.141-1.668 8.387L29.535 56l10.164 10.16c2.242 2.242 2.879 5.457 1.668 8.387-1.215 2.926-3.942 4.746-7.109 4.746Zm-12.684-15.336 10.16 10.164c.676.672 1.57 1.043 2.523 1.043 1.492 0 2.723-.82 3.293-2.199.57-1.379.281-2.832-.774-3.887l-10.164-10.16Zm-10.52-19.18c-.465 0-.938.094-1.406.29-1.379.57-2.2 1.8-2.2 3.292v15.278c0 1.492.82 2.723 2.2 3.293 1.379.57 2.832.281 3.887-.773l2.195-2.2-2.52-2.52c-1.453-1.453-2.254-3.387-2.254-5.441 0-2.055.8-3.988 2.254-5.441l2.519-2.52-2.195-2.2c-.82-.695-1.695-1.055-2.605-1.055Zm10.12 8.7c-1.395-1.395-3.649-1.395-5.043 0-.672.672-1.043 1.567-1.043 2.52 0 .954.371 1.848 1.043 2.524 1.395 1.394 3.649 1.394 5.043 0 1.391-1.39 1.391-3.652 0-5.044Zm.398-5.442 5.039 5.039 10.164-10.16c1.055-1.055 1.344-2.508.773-3.883-.57-1.379-1.8-2.203-3.293-2.203-.953 0-1.847.371-2.523 1.043Z"
  />
</svg>
